# xmcd
#
# Track frame offsets:
#	150
#	12374
#	24604
#	36973
#	50477
#	63541
#	73096
#	85611
#	101676
#	111641
#	121142
#	133439
#	143963
#	154331
#	165721
#	176042
#	187705
#	199955
#	213449
#	226221
#	238624
#	250754
#	260659
#	270982
#	280573
#	291111
#	301677
#	312870
#
# Disc length: 4326 seconds
#
# Revision: 1
# Processed by: cddbd v1.5.2PL0 Copyright (c) Steve Scherf et al.
# Submitted via: EasyCDDAExtractor 10.2.0.1
#
DISCID=9a10e41c
DTITLE=Hank Snow - A Proper Introduction To Hank Snow:I'm Movin' On
DYEAR=2004
DGENRE=Country
TTITLE0=Marriage Vow
TTITLE1=I'm Movin' On
TTITLE2=The Golden Rocket
TTITLE3=Rhumba Boogie
TTITLE4=The Mystery Of No. 5
TTITLE5=One More Ride
TTITLE6=I Wonder Where You Are Tonight
TTITLE7=Bluebird Island
TTITLE8=Down The Trail Of Achin' Hearts
TTITLE9=The Wreck Of The Old 97
TTITLE10=Ben Dewberry's Final Run
TTITLE11=Unwanted Sign Upon Your Heart
TTITLE12=Music Makin' Mama From Memphis
TTITLE13=The Gold Rush Is Over
TTITLE14=Lady's Man
TTITLE15=Married By The Bible, Divorced By The Law
TTITLE16=I Went To Your Wedding
TTITLE17=The Gal Who Invented Kissin'
TTITLE18=(Now And Then There's) A Fool Such As I
TTITLE19=Honymoon On A Rocketship
TTITLE20=The Boogie Woogie Flying Cloud
TTITLE21=Southern Cannonball
TTITLE22=Spanish Fireball
TTITLE23=For Now And Always
TTITLE24=When Mexican Joe Met Jole Blon
TTITLE25=The Reindeer Boogie
TTITLE26=Mississippi River Blues
TTITLE27=My Blue Eyed Jane
EXTD=
EXTT0=
EXTT1=
EXTT2=
EXTT3=
EXTT4=
EXTT5=
EXTT6=
EXTT7=
EXTT8=
EXTT9=
EXTT10=
EXTT11=
EXTT12=
EXTT13=
EXTT14=
EXTT15=
EXTT16=
EXTT17=
EXTT18=
EXTT19=
EXTT20=
EXTT21=
EXTT22=
EXTT23=
EXTT24=
EXTT25=
EXTT26=
EXTT27=
PLAYORDER=
